<svg id="b" xmlns="http://www.w3.org/2000/svg" xmlns:xlink="http://www.w3.org/1999/xlink" width="213px" height="65px" viewBox="0 0 301.14 92.474"><g id="c"><path d="m0,12.121h24.469c17.773,0,25.622,5.89,25.622,17.546,0,13.39-12.002,19.851-23.659,21.931l23.776,30.124,5.541,6.463,2.19,2.886c-2.421-.117-4.501-.347-6.695-.347s-4.501.229-6.577.347c-2.538-3.576-4.846-6.812-7.271-10.042l-13.62-17.66-9.232-10.848h-4.388v38.55c-1.847-.117-3.462-.347-5.076-.347-1.732,0-3.465.229-5.08.347V12.121h0Zm10.156,36.012c1.614.117,9.002.578,14.891-.579,8.424-1.729,14.774-7.5,14.774-16.503,0-7.962-4.043-13.157-12.697-14.542-4.271-.693-12.119-.349-16.968-.114v31.738h0Z"/><path d="m87.341,12.121h24.473c17.773,0,25.621,5.89,25.621,17.546,0,13.39-12.001,19.851-23.662,21.931l23.78,30.124,5.537,6.463,2.194,2.886c-2.425-.117-4.502-.347-6.695-.347s-4.501.229-6.578.347c-2.541-3.576-4.849-6.812-7.274-10.042l-13.616-17.66-9.233-10.848h-4.387v38.55c-1.847-.117-3.462-.347-5.08-.347-1.728,0-3.461.229-5.08.347V12.121h0Zm10.16,36.012c1.614.117,9.002.578,14.887-.579,8.428-1.729,14.774-7.5,14.774-16.503,0-7.962-4.04-13.157-12.694-14.542-4.269-.693-12.122-.349-16.967-.114v31.738h0Z"/><path d="m156.814,91.07c-1.732-.117-3.117-.347-4.615-.347-1.619,0-3.117.229-4.618.347v-55.17c1.501.114,2.999.344,4.618.344,1.498,0,2.883-.229,4.615-.344v55.17h0Zm-4.615-69.021c-3.234,0-5.889-2.653-5.889-5.889s2.654-5.885,5.889-5.885c3.113,0,5.886,2.654,5.886,5.885s-2.772,5.889-5.886,5.889h0Z"/><path d="m194.651,37.285l-9.811,9.925c9.233,10.621,18.814,21.007,28.047,31.743l9.35,11.539v.578c-2.308-.117-4.389-.347-6.348-.347-2.193,0-4.388.229-6.464.347-2.538-3.693-5.08-7.156-7.966-10.504l-25.159-29.433c-.575-.459-1.964-.806-1.964-.345v40.281c-1.846-.117-3.461-.347-5.075-.347-1.733,0-3.465.229-5.08.347V12.121c1.615.117,3.348.348,5.08.348,1.614,0,3.229-.231,5.075-.348v35.667c.117.693,1.732.232,2.887-.69,2.08-1.619,4.501-4.041,6.118-5.66l28.392-29.316c1.501.117,3.003.348,4.618.348,1.384,0,2.886-.231,4.501-.348l-26.201,25.164h0Z"/><path d="m214.692,51.597c0-25.278,18.814-41.205,42.707-41.205,21.692,0,43.74,11.771,43.74,39.474,0,25.739-18.239,42.589-43.971,42.589-25.509,0-42.477-16.158-42.477-40.857h0Zm67.871-26.201c-5.772-7.273-14.777-11.194-24.01-11.194-20.317,0-32.549,15.348-32.549,38.779s14.31,35.665,31.508,35.665c24.355,0,33.123-25.161,32.317-37.857,0-9.581-1.268-17.66-7.267-25.393h0Z"/><path d="m59.254,4.945c-.846-.469-.534-2.497.37-3.325,1.996-1.824,5.754-3.094,7.998,1.831,2.121-.388,3.63.989,4.388,1.186,1.554.4,2.619,1.612,3.274,3.375,2.124-.327,3.088.552,3.157,2.051.065,1.496-.56,2.974-2.45,3.289-.385,1.75-1.483,5.501-4.681,6.338.345,1.253.186,1.551.212,2.129.602.491.927,1.284,1.136,2.083.956.71,3.589,3.94,3.483,5.447-.102,1.509-.322,3.02-1.132,4.27.381,2.002.567,7.427,1.047,9.077.48,1.656.646,2.689.817,3.948,1.285,1.619,2.816,3.458,1.124,5.67-.483-.498-.326-.85-.699-.14-.052-1.152-.228-1.203-.096-2.075-.567-1.074-1.143-2.261-1.45-2.708.205-.529.249-.879-.062-1.325-.308-.447-2.058-5.855-1.996-8.346-1.014,1.839-.483,2.103-.67,3.035.418,1.601,5.055,13.346,5.04,19.298,1.966,2.264.984,2.205.984,2.205l-2.135.864-.638.059s-.974-.285-3.307.457c-.465,2.505-1.362,10.691-1.567,13.763.655,3.032.362,2.93.531,4.078.765,1.525,1.442,3.75,2.461,5.84-1.963-.025-.795.269-1.553.13.384.845,2.86,2.339,4.12,2.93-.106-.247,1.337,1.428-.165,1.452-1.549.242-5.128-2.192-6.003-3.713-.047,1.56-.663,3.267-.663,3.267l-1.197-.931.458-2.676-.645-.144s-.542-5.582-.506-11.129c.037-5.55.466-11.288.82-12.401-.795.325-.293-.044-.86.098-.007,1.155-.605,8.289-.304,12.379.304,4.088.139,9.41.04,11.031-.645-.2-.916.218-.916.218l-.392,4.001-.605-.549-.113-2.478s-.795.267-1.197,1.614c-1.392,1.162-2.791,2.15-3.084,2.048-.293-.102-1.011-.649-1.011-.649,0,0,.56-1.641,1-2.124.439-.483.996-.969,1.875-1.934-1.161-.178-1.513-.278-1.52-.454-.012-.171.139-.698.714-1.995.578-1.296,1.099-14.273,1.41-17.569,0,0,.117-2.886.23-4.038-.172-.462-1.963-.408-2.406-.312-3.798.806-2.791-.332-1.854-2.63.935-2.295,2.128-5.911,2.875-8.489-.366-2.926,2.14-8.383,3.004-9.693-.345-1.199-.077-2.825-.085-4.209-.641,2.395-3.292,8.875-5.885,11.533-.282,1.399-1.113.968-1.454,2.322-.891,3.512-.106,1.445-.026,2.021-1.494,1.395-1.168.918-1.494,1.395,0,0-.9-3.306.527-4.932,1.297-.696,1.289-.869,1.905-1.243.542-2.046,3.083-7.13,4.343-11.231,1.257-4.101,1.121-8.372,2.894-11.285,1.772-2.91,1.927-3.32,2.092-3.562-.103-.974-.144-1.843.017-3.405-1.685-.159-4.391-1.245-5.014-3.473-1.352.757-3.816-.056-4.01-1.779-.194-1.726,1.278-3.699,2.761-4.114.297-2.324,2.077-5.12,3.055-6.492-1.15-1.162-.666-.664-1.04-1.224-.37-.562-.784-.718-1.297-.578-.513.139-.927-.073-1.476.529-.249.936-1.267,2.791-2.509,2.095h0Z" fill="#e10414"/></g></svg>