<svg width="306" height="60" viewBox="0 0 306 60" fill="none" xmlns="http://www.w3.org/2000/svg">
<g clip-path="url(#clip0_4_22)">
<path d="M23.1272 55.4146H29.5036C29.5751 55.4146 29.6418 55.4289 29.699 55.4575C29.8801 55.5386 29.9706 55.6961 29.9706 55.9251C29.9706 56.1303 29.8944 56.2782 29.7466 56.3737C29.6752 56.4166 29.5941 56.4405 29.5036 56.4405H23.1272C23.0176 56.4405 22.9223 56.4071 22.8412 56.3403C22.7269 56.2401 22.6697 56.1017 22.6697 55.9299C22.6697 55.739 22.7316 55.5959 22.8603 55.5004C22.9366 55.4432 23.0223 55.4146 23.1272 55.4146Z" fill="#3E4E48"/>
<path d="M36.0802 56.512V59.3369C36.0802 59.5039 36.023 59.6375 35.9086 59.7425C35.7656 59.8713 35.5798 59.9334 35.351 59.9334C35.0555 59.9334 34.8411 59.8332 34.7124 59.6328C34.6552 59.5516 34.6314 59.4514 34.6314 59.3369V53.3245C34.6314 52.4656 35.0603 52.0361 35.9181 52.0361H37.8148C38.5678 52.0361 39.1778 52.1602 39.6448 52.4036C39.9117 52.5467 40.1357 52.7376 40.3216 52.9762C40.6027 53.3388 40.7409 53.7587 40.7409 54.2455C40.7409 55.4145 40.1023 56.1064 38.8252 56.3259L40.903 58.855C40.9983 58.9695 41.0412 59.0983 41.0412 59.2462C41.0412 59.4896 40.9316 59.6709 40.7171 59.7902C40.5598 59.8809 40.3883 59.9238 40.212 59.9238C39.926 59.9238 39.6973 59.7998 39.5209 59.5564L37.3526 56.5073H36.0802V56.512ZM36.0802 55.343H37.5813C38.6441 55.343 39.1778 54.9851 39.1778 54.2693C39.1778 53.5774 38.6631 53.2291 37.6338 53.2291H36.2946C36.1516 53.2291 36.0802 53.3006 36.0802 53.4438V55.343Z" fill="#3E4E48"/>
<path d="M46.1547 51.8547C46.3072 51.8547 46.4549 51.8977 46.5931 51.9836C46.8648 52.1458 47.003 52.3892 47.003 52.7089C47.003 52.9332 46.9267 53.124 46.7742 53.2863C46.6074 53.4724 46.3977 53.563 46.1452 53.563C46.0022 53.563 45.8688 53.5296 45.7401 53.458C45.4446 53.291 45.2969 53.0381 45.2969 52.7041C45.2969 52.4417 45.397 52.2269 45.5923 52.0599C45.7591 51.9215 45.945 51.8547 46.1547 51.8547ZM46.8314 54.7798V59.3464C46.8314 59.4895 46.7885 59.6088 46.7027 59.7043C46.5693 59.857 46.3834 59.9333 46.1452 59.9333C45.8735 59.9333 45.6781 59.8379 45.5542 59.647C45.497 59.5611 45.4732 59.4609 45.4732 59.3464V54.7798C45.4732 54.5699 45.5638 54.4124 45.7448 54.3074C45.8688 54.2311 46.007 54.1929 46.1547 54.1929C46.331 54.1929 46.4883 54.2454 46.6217 54.3456C46.7599 54.4506 46.8314 54.5985 46.8314 54.7798Z" fill="#3E4E48"/>
<path d="M53.3555 56.512V59.3369C53.3555 59.5039 53.2984 59.6375 53.184 59.7425C53.041 59.8713 52.8552 59.9334 52.6264 59.9334C52.3309 59.9334 52.1165 59.8332 51.9878 59.6328C51.9306 59.5516 51.9068 59.4514 51.9068 59.3369V53.3245C51.9068 52.4656 52.3357 52.0361 53.1935 52.0361H55.0902C55.8432 52.0361 56.4532 52.1602 56.9202 52.4036C57.1871 52.5467 57.4111 52.7376 57.597 52.9762C57.8781 53.3388 58.0163 53.7587 58.0163 54.2455C58.0163 55.4145 57.3777 56.1064 56.1005 56.3259L58.1784 58.855C58.2737 58.9695 58.3166 59.0983 58.3166 59.2462C58.3166 59.4896 58.207 59.6709 57.9925 59.7902C57.8352 59.8809 57.6637 59.9238 57.4873 59.9238C57.2014 59.9238 56.9727 59.7998 56.7963 59.5564L54.628 56.5073H53.3555V56.512ZM53.3555 55.343H54.8567C55.9195 55.343 56.4532 54.9851 56.4532 54.2693C56.4532 53.5774 55.9385 53.2291 54.9091 53.2291H53.57C53.427 53.2291 53.3555 53.3006 53.3555 53.4438V55.343Z" fill="#3E4E48"/>
<path d="M63.4301 51.8547C63.5826 51.8547 63.7303 51.8977 63.8685 51.9836C64.1402 52.1458 64.2784 52.3892 64.2784 52.7089C64.2784 52.9332 64.2021 53.124 64.0496 53.2863C63.8828 53.4724 63.6731 53.563 63.4205 53.563C63.2776 53.563 63.1441 53.5296 63.0155 53.458C62.72 53.291 62.5723 53.0381 62.5723 52.7041C62.5723 52.4417 62.6723 52.2269 62.8677 52.0599C63.0345 51.9215 63.2204 51.8547 63.4301 51.8547ZM64.1068 54.7798V59.3464C64.1068 59.4895 64.0639 59.6088 63.9781 59.7043C63.8447 59.857 63.6588 59.9333 63.4205 59.9333C63.1489 59.9333 62.9535 59.8379 62.8296 59.647C62.7724 59.5611 62.7486 59.4609 62.7486 59.3464V54.7798C62.7486 54.5699 62.8391 54.4124 63.0202 54.3074C63.1441 54.2311 63.2823 54.1929 63.4301 54.1929C63.6064 54.1929 63.7637 54.2454 63.8971 54.3456C64.0353 54.4506 64.1068 54.5985 64.1068 54.7798Z" fill="#3E4E48"/>
<path d="M70.6309 57.1085V59.3465C70.6309 59.4658 70.6023 59.566 70.5404 59.6519C70.4117 59.838 70.202 59.9334 69.9161 59.9334C69.6683 59.9334 69.4729 59.8618 69.3299 59.7235C69.2298 59.6233 69.1774 59.4944 69.1774 59.3417V52.499C69.1774 52.3797 69.2108 52.27 69.2823 52.1793C69.4157 52.0028 69.6254 51.9121 69.9066 51.9121C70.1496 51.9121 70.3402 51.9837 70.4784 52.1221C70.5785 52.2223 70.6309 52.3463 70.6309 52.499V55.3764L73.9097 52.1602C74.0669 52.0028 74.248 51.9264 74.4625 51.9264C74.6341 51.9264 74.7866 51.9789 74.92 52.0887C75.0868 52.2223 75.1678 52.3941 75.1678 52.6136C75.1678 52.7949 75.0963 52.9476 74.9581 53.0764L72.5372 55.3335L75.5062 58.7548C75.6396 58.9027 75.7016 59.065 75.7016 59.2463C75.7016 59.461 75.6062 59.6376 75.4156 59.7712C75.2679 59.8809 75.1059 59.9334 74.9343 59.9334C74.6912 59.9334 74.4863 59.8284 74.3148 59.6137L71.5364 56.2258L70.6309 57.1085Z" fill="#3E4E48"/>
<path d="M83.3123 51.8547C84.0986 51.8547 84.7896 52.0599 85.3901 52.4751C85.9953 52.895 86.4385 53.4771 86.7197 54.2263C86.9151 54.7464 87.0104 55.3143 87.0104 55.9298C87.0104 57.0416 86.7149 57.9674 86.1287 58.707C85.4377 59.5754 84.4941 60.0097 83.2932 60.0097C82.0303 60.0097 81.0534 59.5277 80.3623 58.5686C79.8429 57.8481 79.5808 56.9653 79.5808 55.9298C79.5808 55.1472 79.738 54.441 80.0526 53.8159C80.5005 52.9188 81.182 52.3271 82.1018 52.0361C82.4735 51.9168 82.8786 51.8547 83.3123 51.8547ZM83.2837 53.0668C82.6546 53.0668 82.1447 53.3197 81.7491 53.8207C81.3345 54.3504 81.1296 55.0423 81.1296 55.906C81.1296 56.6551 81.2869 57.2802 81.6062 57.7813C82.0065 58.4111 82.5641 58.7261 83.2884 58.7261C83.9795 58.7261 84.5275 58.4302 84.9326 57.8385C85.2757 57.3327 85.4473 56.6885 85.4473 55.906C85.4473 55.0136 85.2328 54.3074 84.8039 53.7873C84.4084 53.3101 83.9032 53.0668 83.2837 53.0668Z" fill="#3E4E48"/>
<path d="M98.7481 53.1144H97.9666C97.8522 53.1144 97.7569 53.0762 97.6759 52.9999C97.5663 52.8949 97.5091 52.7518 97.5091 52.5752C97.5091 52.3605 97.5853 52.203 97.733 52.1076C97.7998 52.0646 97.876 52.0408 97.9666 52.0408H100.964C101.083 52.0408 101.183 52.0789 101.264 52.1553C101.374 52.2555 101.426 52.3987 101.426 52.58C101.426 52.7899 101.35 52.9474 101.202 53.0476C101.136 53.0906 101.055 53.1144 100.964 53.1144H100.192V58.7403H100.964C101.083 58.7403 101.183 58.7785 101.264 58.8548C101.374 58.955 101.426 59.0982 101.426 59.2795C101.426 59.4895 101.35 59.6469 101.202 59.7472C101.136 59.7901 101.055 59.814 100.964 59.814H97.9666C97.8522 59.814 97.7569 59.7758 97.6759 59.6994C97.5663 59.5992 97.5091 59.4561 97.5091 59.2747C97.5091 59.06 97.5853 58.9026 97.733 58.8071C97.7998 58.7642 97.876 58.7403 97.9666 58.7403H98.7481V53.1144Z" fill="#3E4E48"/>
<path d="M107.455 52.4942V59.3465C107.455 59.4896 107.412 59.6089 107.326 59.7044C107.193 59.8571 107.007 59.9334 106.769 59.9334C106.497 59.9334 106.302 59.838 106.178 59.6471C106.121 59.5612 106.097 59.461 106.097 59.3465V52.4942C106.097 52.2891 106.187 52.1364 106.368 52.0314C106.492 51.9598 106.626 51.9216 106.773 51.9216C106.955 51.9216 107.112 51.9694 107.245 52.0696C107.383 52.1698 107.455 52.3129 107.455 52.4942Z" fill="#3E4E48"/>
<path d="M113.993 52.4942V59.3465C113.993 59.4896 113.95 59.6089 113.865 59.7044C113.731 59.8571 113.545 59.9334 113.307 59.9334C113.035 59.9334 112.84 59.838 112.716 59.6471C112.659 59.5612 112.635 59.461 112.635 59.3465V52.4942C112.635 52.2891 112.726 52.1364 112.907 52.0314C113.031 51.9598 113.164 51.9216 113.312 51.9216C113.493 51.9216 113.65 51.9694 113.784 52.0696C113.922 52.1698 113.993 52.3129 113.993 52.4942Z" fill="#3E4E48"/>
<path d="M122.891 58.9743C122.443 59.6423 121.799 59.9763 120.961 59.9763C120.298 59.9763 119.784 59.7378 119.412 59.2606C119.126 58.8932 118.983 58.3635 118.983 57.6668V54.7799C118.983 54.6415 119.026 54.5222 119.107 54.4268C119.24 54.2789 119.426 54.2025 119.664 54.2025C119.936 54.2025 120.131 54.298 120.251 54.4841C120.308 54.5699 120.332 54.6702 120.332 54.7799V57.538C120.332 57.8434 120.379 58.0963 120.47 58.2967C120.622 58.6307 120.875 58.7977 121.232 58.7977C121.633 58.7977 122 58.5973 122.333 58.2013C122.586 57.9006 122.714 57.6 122.714 57.2946V54.7799C122.714 54.632 122.762 54.5079 122.862 54.4029C122.991 54.2693 123.167 54.1978 123.396 54.1978C123.668 54.1978 123.863 54.2932 123.982 54.4793C124.039 54.5652 124.063 54.6654 124.063 54.7751V59.3751C124.063 59.5135 124.03 59.6328 123.963 59.7282C123.868 59.8714 123.715 59.9429 123.51 59.9429C123.181 59.9429 122.991 59.7712 122.943 59.4228L122.891 58.9743Z" fill="#3E4E48"/>
<path d="M130.873 54.126C131.626 54.126 132.227 54.2834 132.679 54.5984C132.927 54.7702 133.046 54.9706 133.046 55.1996C133.046 55.3332 133.003 55.4621 132.922 55.5814C132.808 55.7388 132.651 55.8152 132.455 55.8152C132.327 55.8152 132.184 55.7531 132.031 55.6338C131.679 55.3619 131.283 55.2235 130.849 55.2235C130.287 55.2235 130.006 55.3809 130.006 55.7007C130.006 55.8868 130.106 56.0347 130.306 56.1397C130.373 56.1731 130.482 56.2112 130.644 56.2637C131.583 56.55 132.165 56.7504 132.384 56.8602C132.961 57.1465 133.251 57.6094 133.251 58.2392C133.251 58.8262 133.018 59.2747 132.555 59.5849C132.15 59.8569 131.602 59.9905 130.907 59.9905C130.111 59.9905 129.458 59.8091 128.948 59.4512C128.614 59.2174 128.448 58.9693 128.448 58.7116C128.448 58.5923 128.486 58.473 128.567 58.3585C128.676 58.2011 128.824 58.1247 129.01 58.1247C129.158 58.1247 129.291 58.1867 129.42 58.306C129.806 58.6782 130.301 58.8643 130.897 58.8643C131.517 58.8643 131.826 58.6973 131.826 58.3633C131.826 58.139 131.669 57.9482 131.359 57.7955C131.159 57.7 130.673 57.5378 129.911 57.2992C129.081 57.0463 128.662 56.5357 128.662 55.7722C128.662 55.1758 128.948 54.7224 129.52 54.4123C129.891 54.2262 130.339 54.126 130.873 54.126Z" fill="#3E4E48"/>
<path d="M138.503 54.3218V53.1384C138.503 52.9953 138.551 52.8712 138.641 52.771C138.77 52.6279 138.946 52.5515 139.175 52.5515C139.442 52.5515 139.637 52.6469 139.756 52.8426C139.814 52.9285 139.837 53.0287 139.837 53.1384V54.3218H140.933C141.062 54.3218 141.167 54.3696 141.243 54.4602C141.339 54.57 141.391 54.7131 141.391 54.8801C141.391 55.1044 141.31 55.2666 141.153 55.3716C141.091 55.4098 141.019 55.4289 140.933 55.4289H139.837V59.356C139.837 59.4944 139.794 59.6137 139.713 59.7091C139.58 59.8571 139.399 59.9334 139.161 59.9334C138.894 59.9334 138.698 59.838 138.579 59.6519C138.522 59.5708 138.498 59.4706 138.498 59.356V55.4289H137.402C137.297 55.4289 137.207 55.3955 137.13 55.3287C137.007 55.2237 136.945 55.071 136.945 54.8706C136.945 54.6415 137.026 54.4793 137.183 54.3791C137.25 54.3361 137.321 54.3171 137.402 54.3171H138.503V54.3218Z" fill="#3E4E48"/>
<path d="M146.829 56.8556V59.3608C146.829 59.5087 146.781 59.6328 146.681 59.7378C146.547 59.8714 146.371 59.943 146.152 59.943C145.89 59.943 145.694 59.8523 145.575 59.671C145.518 59.5851 145.485 59.4801 145.485 59.3656V54.7418C145.485 54.6034 145.528 54.4841 145.613 54.3886C145.737 54.255 145.904 54.193 146.118 54.193C146.385 54.193 146.571 54.2932 146.681 54.4936C146.724 54.5652 146.743 54.6511 146.743 54.7418V55.2905C146.919 54.9851 147.095 54.7513 147.272 54.5843C147.596 54.2884 147.987 54.1357 148.439 54.1357C148.797 54.1357 149.102 54.2503 149.359 54.4745C149.545 54.6368 149.635 54.8229 149.635 55.0328C149.635 55.1808 149.583 55.3191 149.483 55.448C149.345 55.6245 149.164 55.7152 148.949 55.7152C148.806 55.7152 148.687 55.677 148.592 55.6007C148.463 55.5005 148.315 55.448 148.144 55.448C147.634 55.4337 147.191 55.9061 146.829 56.8556Z" fill="#3E4E48"/>
<path d="M157.456 54.9229L157.489 54.5841C157.513 54.2978 157.699 54.1594 158.047 54.1594C158.323 54.1594 158.514 54.2644 158.619 54.4791C158.652 54.5507 158.671 54.6318 158.671 54.7225V59.3702C158.671 59.4895 158.647 59.5897 158.595 59.6803C158.49 59.8521 158.318 59.9332 158.075 59.9332C157.737 59.9332 157.546 59.7567 157.494 59.4083L157.437 59.0505C157.094 59.666 156.508 59.9762 155.674 59.9762C154.787 59.9762 154.106 59.6183 153.624 58.9025C153.286 58.3967 153.114 57.7812 153.114 57.0606C153.114 56.3783 153.286 55.7818 153.634 55.276C153.92 54.8561 154.287 54.5507 154.735 54.3598C155.044 54.2262 155.373 54.1594 155.716 54.1594C156.484 54.1594 157.065 54.4123 157.456 54.9229ZM157.346 57.1513V56.7362C157.346 56.3497 157.203 56.0156 156.922 55.7246C156.636 55.4335 156.303 55.2856 155.926 55.2856C155.488 55.2856 155.14 55.4669 154.873 55.8295C154.639 56.154 154.52 56.5596 154.52 57.0511C154.52 57.4758 154.601 57.8384 154.768 58.1391C155.025 58.6019 155.407 58.831 155.917 58.831C156.231 58.831 156.522 58.7117 156.779 58.4731C157.156 58.1295 157.346 57.6857 157.346 57.1513Z" fill="#3E4E48"/>
<path d="M164.309 54.3218V53.1384C164.309 52.9953 164.356 52.8712 164.447 52.771C164.576 52.6279 164.752 52.5515 164.981 52.5515C165.248 52.5515 165.443 52.6469 165.562 52.8426C165.619 52.9285 165.643 53.0287 165.643 53.1384V54.3218H166.739C166.868 54.3218 166.973 54.3696 167.049 54.4602C167.144 54.57 167.197 54.7131 167.197 54.8801C167.197 55.1044 167.116 55.2666 166.959 55.3716C166.897 55.4098 166.825 55.4289 166.739 55.4289H165.643V59.356C165.643 59.4944 165.6 59.6137 165.519 59.7091C165.386 59.8571 165.205 59.9334 164.966 59.9334C164.7 59.9334 164.504 59.838 164.385 59.6519C164.328 59.5708 164.304 59.4706 164.304 59.356V55.4289H163.208C163.103 55.4289 163.013 55.3955 162.936 55.3287C162.812 55.2237 162.75 55.071 162.75 54.8706C162.75 54.6415 162.831 54.4793 162.989 54.3791C163.055 54.3361 163.127 54.3171 163.208 54.3171H164.309V54.3218Z" fill="#3E4E48"/>
<path d="M172.158 51.8547C172.31 51.8547 172.453 51.8977 172.596 51.9836C172.868 52.1458 173.006 52.3892 173.006 52.7089C173.006 52.9332 172.93 53.124 172.777 53.2863C172.611 53.4724 172.401 53.563 172.148 53.563C172.005 53.563 171.872 53.5296 171.743 53.458C171.448 53.291 171.3 53.0381 171.3 52.7041C171.3 52.4417 171.4 52.2269 171.595 52.0599C171.757 51.9215 171.948 51.8547 172.158 51.8547ZM172.835 54.7798V59.3464C172.835 59.4895 172.792 59.6088 172.706 59.7043C172.572 59.857 172.387 59.9333 172.148 59.9333C171.877 59.9333 171.681 59.8379 171.557 59.647C171.5 59.5611 171.476 59.4609 171.476 59.3464V54.7798C171.476 54.5699 171.567 54.4124 171.748 54.3074C171.872 54.2311 172.01 54.1929 172.158 54.1929C172.334 54.1929 172.491 54.2454 172.625 54.3456C172.763 54.4506 172.835 54.5985 172.835 54.7798Z" fill="#3E4E48"/>
<path d="M180.112 54.126C180.893 54.126 181.537 54.3837 182.046 54.9085C182.575 55.4525 182.842 56.1683 182.842 57.0511C182.842 57.7477 182.68 58.349 182.351 58.8452C181.851 59.6135 181.098 59.9952 180.102 59.9952C179.23 59.9952 178.539 59.6898 178.034 59.0791C177.591 58.5494 177.367 57.8718 177.367 57.0463C177.367 56.1635 177.629 55.4525 178.158 54.9133C178.668 54.3884 179.321 54.126 180.112 54.126ZM180.097 55.2569C179.659 55.2569 179.311 55.4478 179.058 55.8295C178.849 56.1492 178.739 56.5548 178.739 57.0415C178.739 57.4137 178.796 57.7382 178.915 58.015C179.149 58.5637 179.549 58.8357 180.112 58.8357C180.56 58.8357 180.903 58.6496 181.151 58.2726C181.36 57.9482 181.47 57.5378 181.47 57.0415C181.47 56.5357 181.355 56.1206 181.131 55.8009C180.879 55.4382 180.531 55.2569 180.097 55.2569Z" fill="#3E4E48"/>
<path d="M188.385 55.1281C188.585 54.8609 188.818 54.6509 189.085 54.4934C189.462 54.2692 189.862 54.1594 190.281 54.1594C190.911 54.1594 191.411 54.3694 191.783 54.7941C192.116 55.1663 192.283 55.7198 192.283 56.4594V59.3559C192.283 59.4942 192.24 59.6135 192.159 59.709C192.026 59.8569 191.84 59.9332 191.602 59.9332C191.33 59.9332 191.135 59.8378 191.015 59.6517C190.958 59.5658 190.934 59.4656 190.934 59.3559V56.6073C190.934 56.3019 190.887 56.0443 190.787 55.8391C190.629 55.5051 190.377 55.338 190.024 55.338C189.648 55.338 189.295 55.5337 188.952 55.9202C188.68 56.2256 188.547 56.5405 188.547 56.8602V59.3511C188.547 59.499 188.499 59.6231 188.399 59.7281C188.266 59.8617 188.089 59.9332 187.87 59.9332C187.598 59.9332 187.398 59.8378 187.279 59.6517C187.222 59.5706 187.198 59.4704 187.198 59.3559V54.7511C187.198 54.6127 187.231 54.4982 187.298 54.4028C187.394 54.2596 187.546 54.1881 187.746 54.1881C188.065 54.1881 188.256 54.3598 188.318 54.7082L188.385 55.1281Z" fill="#3E4E48"/>
<path d="M206.213 51.8547C206.894 51.8547 207.504 52.0074 208.048 52.3176C208.562 52.6134 208.815 52.9284 208.815 53.2576C208.815 53.4246 208.753 53.5678 208.629 53.6966C208.486 53.8398 208.319 53.9114 208.119 53.9114C207.943 53.9114 207.762 53.8207 207.571 53.6441C207.166 53.2576 206.709 53.0668 206.203 53.0668C205.803 53.0668 205.474 53.1383 205.226 53.2767C204.941 53.4342 204.793 53.6728 204.793 53.9782C204.793 54.2502 204.921 54.4792 205.184 54.6653C205.379 54.8037 205.841 54.985 206.57 55.1997C207.519 55.4813 208.167 55.758 208.515 56.0396C209.029 56.4547 209.287 56.9891 209.287 57.6429C209.287 58.4064 208.982 59.0028 208.372 59.4323C207.819 59.8188 207.104 60.0097 206.227 60.0097C205.398 60.0097 204.664 59.8092 204.03 59.4084C203.43 59.0267 203.13 58.6545 203.13 58.2966C203.13 58.1487 203.177 58.0151 203.277 57.8958C203.411 57.724 203.582 57.6429 203.792 57.6429C203.94 57.6429 204.078 57.6906 204.202 57.7813C204.24 57.8147 204.316 57.8815 204.426 57.996C204.95 58.5113 205.551 58.7642 206.227 58.7642C206.68 58.7642 207.047 58.6783 207.328 58.5113C207.633 58.33 207.786 58.0771 207.786 57.7478C207.786 57.4091 207.628 57.1418 207.309 56.9367C207.095 56.803 206.613 56.6169 205.86 56.3784C205.064 56.1302 204.474 55.8678 204.092 55.6053C203.611 55.2665 203.368 54.756 203.368 54.0736C203.368 53.5201 203.563 53.0477 203.954 52.6516C204.478 52.1172 205.231 51.8547 206.213 51.8547Z" fill="#3E4E48"/>
<path d="M214.591 54.3218V53.1384C214.591 52.9953 214.639 52.8712 214.729 52.771C214.858 52.6279 215.034 52.5515 215.263 52.5515C215.53 52.5515 215.725 52.6469 215.844 52.8426C215.901 52.9285 215.925 53.0287 215.925 53.1384V54.3218H217.021C217.15 54.3218 217.255 54.3696 217.331 54.4602C217.426 54.57 217.479 54.7131 217.479 54.8801C217.479 55.1044 217.398 55.2666 217.241 55.3716C217.179 55.4098 217.107 55.4289 217.021 55.4289H215.925V59.356C215.925 59.4944 215.882 59.6137 215.801 59.7091C215.668 59.8571 215.487 59.9334 215.249 59.9334C214.982 59.9334 214.786 59.838 214.667 59.6519C214.61 59.5708 214.586 59.4706 214.586 59.356V55.4289H213.49C213.385 55.4289 213.295 55.3955 213.218 55.3287C213.095 55.2237 213.033 55.071 213.033 54.8706C213.033 54.6415 213.114 54.4793 213.271 54.3791C213.338 54.3361 213.409 54.3171 213.49 54.3171H214.591V54.3218Z" fill="#3E4E48"/>
<path d="M225.48 58.9743C225.032 59.6423 224.389 59.9763 223.555 59.9763C222.893 59.9763 222.378 59.7378 222.006 59.2606C221.72 58.8932 221.573 58.3635 221.573 57.6668V54.7799C221.573 54.6415 221.615 54.5222 221.696 54.4268C221.83 54.2789 222.016 54.2025 222.254 54.2025C222.526 54.2025 222.721 54.298 222.84 54.4841C222.897 54.5699 222.921 54.6702 222.921 54.7799V57.538C222.921 57.8434 222.969 58.0963 223.059 58.2967C223.212 58.6307 223.465 58.7977 223.822 58.7977C224.222 58.7977 224.589 58.5973 224.923 58.2013C225.175 57.9006 225.304 57.6 225.304 57.2946V54.7799C225.304 54.632 225.352 54.5079 225.452 54.4029C225.58 54.2693 225.757 54.1978 225.986 54.1978C226.257 54.1978 226.453 54.2932 226.572 54.4793C226.629 54.5652 226.653 54.6654 226.653 54.7751V59.3751C226.653 59.5135 226.619 59.6328 226.553 59.7282C226.457 59.8714 226.305 59.9429 226.1 59.9429C225.771 59.9429 225.58 59.7712 225.533 59.4228L225.48 58.9743Z" fill="#3E4E48"/>
<path d="M235.231 54.861V52.4942C235.231 52.3606 235.274 52.2413 235.355 52.1459C235.483 51.998 235.665 51.9216 235.908 51.9216C236.174 51.9216 236.37 52.0171 236.489 52.2032C236.546 52.2891 236.57 52.3893 236.57 52.4942V59.3703C236.57 59.5278 236.532 59.6519 236.456 59.7473C236.351 59.8761 236.203 59.9382 236.008 59.9382C235.693 59.9382 235.503 59.7712 235.441 59.4371L235.36 58.9886C235.221 59.2558 235.031 59.4705 234.792 59.628C234.445 59.8618 234.035 59.9763 233.568 59.9763C232.686 59.9763 232.005 59.6185 231.523 58.9027C231.185 58.3969 231.013 57.7813 231.013 57.056C231.013 56.3498 231.194 55.7343 231.566 55.2189C232.066 54.5127 232.748 54.1596 233.606 54.1596C234.316 54.1596 234.859 54.3934 235.231 54.861ZM235.24 57.1515V56.7363C235.24 56.2114 235.007 55.7963 234.545 55.5052C234.321 55.3621 234.082 55.2905 233.83 55.2905C233.382 55.2905 233.024 55.4766 232.758 55.8488C232.524 56.1733 232.41 56.5741 232.41 57.0608C232.41 57.4807 232.491 57.8386 232.653 58.1345C232.91 58.6069 233.301 58.8407 233.811 58.8407C234.149 58.8407 234.445 58.7071 234.711 58.4446C235.064 58.0963 235.24 57.6668 235.24 57.1515Z" fill="#3E4E48"/>
<path d="M242.251 51.8547C242.403 51.8547 242.546 51.8977 242.689 51.9836C242.961 52.1458 243.099 52.3892 243.099 52.7089C243.099 52.9332 243.023 53.124 242.87 53.2863C242.703 53.4724 242.494 53.563 242.241 53.563C242.098 53.563 241.965 53.5296 241.836 53.458C241.541 53.291 241.393 53.0381 241.393 52.7041C241.393 52.4417 241.493 52.2269 241.688 52.0599C241.85 51.9215 242.036 51.8547 242.251 51.8547ZM242.923 54.7798V59.3464C242.923 59.4895 242.88 59.6088 242.794 59.7043C242.66 59.857 242.475 59.9333 242.236 59.9333C241.965 59.9333 241.769 59.8379 241.645 59.647C241.588 59.5611 241.564 59.4609 241.564 59.3464V54.7798C241.564 54.5699 241.655 54.4124 241.836 54.3074C241.96 54.2311 242.098 54.1929 242.246 54.1929C242.422 54.1929 242.579 54.2454 242.713 54.3456C242.856 54.4506 242.923 54.5985 242.923 54.7798Z" fill="#3E4E48"/>
<path d="M250.204 54.126C250.986 54.126 251.629 54.3837 252.139 54.9085C252.668 55.4525 252.935 56.1683 252.935 57.0511C252.935 57.7477 252.773 58.349 252.444 58.8452C251.944 59.6135 251.191 59.9952 250.195 59.9952C249.323 59.9952 248.632 59.6898 248.127 59.0791C247.683 58.5494 247.459 57.8718 247.459 57.0463C247.459 56.1635 247.722 55.4525 248.251 54.9133C248.76 54.3884 249.409 54.126 250.204 54.126ZM250.19 55.2569C249.752 55.2569 249.404 55.4478 249.151 55.8295C248.942 56.1492 248.832 56.5548 248.832 57.0415C248.832 57.4137 248.889 57.7382 249.008 58.015C249.242 58.5637 249.642 58.8357 250.204 58.8357C250.652 58.8357 250.996 58.6496 251.243 58.2726C251.453 57.9482 251.563 57.5378 251.563 57.0415C251.563 56.5357 251.448 56.1206 251.224 55.8009C250.972 55.4382 250.624 55.2569 250.19 55.2569Z" fill="#3E4E48"/>
<path d="M257.51 55.4146H263.887C263.958 55.4146 264.025 55.4289 264.082 55.4575C264.263 55.5386 264.354 55.6961 264.354 55.9251C264.354 56.1303 264.277 56.2782 264.13 56.3737C264.058 56.4166 263.977 56.4405 263.887 56.4405H257.51C257.401 56.4405 257.305 56.4071 257.224 56.3403C257.11 56.2401 257.053 56.1017 257.053 55.9299C257.053 55.739 257.115 55.5959 257.243 55.5004C257.315 55.4432 257.405 55.4146 257.51 55.4146Z" fill="#3E4E48"/>
<path d="M3.62149 3.03488C3.62149 3.03488 1.52461 3.73633 1.52461 5.84067C1.52461 7.93547 0.123518 23.3244 0.600081 25.1901C1.06235 27.0511 2.22992 28.225 2.22992 28.225L5.26086 30.3198C5.26086 30.3198 7.57696 29.8617 7.57696 28.9264C7.57696 27.9959 9.21157 26.1302 9.21157 26.1302C9.21157 26.1302 9.6786 13.7713 10.6127 11.667C11.542 9.57218 9.21157 6.78071 9.21157 6.78071C9.21157 6.78071 8.51102 3.97014 3.855 2.57202L3.62149 3.03488Z" fill="#3E4E48"/>
<path d="M22.4886 9.56274C22.4886 9.56274 20.387 10.7271 20.1582 13.7619C19.9295 16.7919 20.6157 18.4239 20.8492 19.3591C21.0827 20.2896 21.0827 27.7479 19.4577 29.3798C17.823 31.0165 20.854 39.4148 13.167 44.3106C13.167 44.3106 11.0749 47.1021 14.5681 47.8036C18.0566 48.505 21.788 41.9772 22.7221 39.4148C23.6419 36.8524 25.7483 18.1901 25.5148 16.3339C25.267 14.4633 24.1137 10.9656 22.4886 9.56274Z" fill="#3E4E48"/>
<path d="M48.5661 3.15894C48.5661 3.15894 44.6011 0.820778 43.2143 15.5178C43.2143 15.5178 42.7473 21.1055 42.976 22.0408C43.2143 22.976 45.3016 23.2051 47.1745 23.6727C47.1745 23.6727 49.9529 23.9017 50.4342 21.5731C50.4342 21.5731 50.6677 10.6172 51.3588 8.52238C51.3635 8.51761 50.8965 4.31847 48.5661 3.15894Z" fill="#3E4E48"/>
<path d="M61.1378 0.119385C61.1378 0.119385 59.0457 1.52228 58.3595 3.85089C58.3595 3.85089 56.9536 11.543 58.3595 15.5178C58.3595 15.5178 58.1116 25.7628 57.1824 26.9366C57.1824 26.9366 56.2483 34.1658 54.1562 36.0316C52.0641 37.8973 48.0991 38.3602 48.7996 41.1564C49.5049 43.9622 54.3897 41.6288 55.3285 41.3903C56.2531 41.1564 62.3149 33.4644 63.2442 30.6681C64.1735 27.8767 64.8693 7.11477 63.9448 5.48283C63.94 5.48283 62.0719 0.587016 61.1378 0.119385Z" fill="#3E4E48"/>
<path d="M76.7452 16.9064C76.7452 16.9064 75.5872 14.344 85.8285 13.4135C96.0746 12.483 95.3788 12.7168 99.1008 12.7168L103.285 15.5226C103.285 15.5226 100.268 22.2746 98.8673 33.0015C98.8673 33.0015 98.6338 37.6683 99.096 39.0617C99.096 39.0617 89.784 41.3951 87.2201 41.1612C87.2201 41.1612 77.6698 41.3951 76.0399 40.4693C76.0399 40.4693 73.9478 36.0364 85.352 34.6335C85.352 34.6335 90.9468 33.2401 94.664 33.2401C94.664 33.2401 94.907 29.5086 95.8411 25.3143L95.9221 24.9182C95.9221 24.9182 96.2986 20.1846 95.8411 18.5479C95.8411 18.5479 85.1232 16.9112 77.665 18.5479L76.7452 16.9064Z" fill="#3E4E48"/>
<path d="M151.961 4.15161C151.961 4.15161 149.64 6.01737 148.473 6.71404C147.31 7.42026 148.701 10.4456 136.825 22.8044C136.825 22.8044 135.2 24.6654 134.967 28.4064C134.967 28.4064 141.949 23.7444 143.583 21.4158C143.583 21.4158 142.659 33.307 141.949 37.029C141.258 40.7509 144.512 43.3229 145.675 37.2628C145.675 37.2628 147.076 22.5706 146.147 18.8438C146.147 18.8486 152.428 9.75365 151.961 4.15161Z" fill="#3E4E48"/>
<path d="M164.552 15.575L171.529 13.4802C171.529 13.4802 175.246 14.8831 173.159 17.2117C173.159 17.2117 166.177 19.3113 164.304 19.7789C163.561 19.7217 160.31 19.5403 159.176 18.6862C159.181 18.6862 160.811 16.5103 164.552 15.575Z" fill="#3E4E48"/>
<path d="M157.318 27.0083C157.318 27.0083 163.146 21.1725 173.387 19.5405C173.387 19.5405 178.739 20.7096 175.713 26.3021C175.713 26.3021 170.123 41.6958 168.031 42.8601C168.031 42.8601 166.172 43.7906 165.238 42.8601C164.304 41.9296 162.913 39.3672 164.547 37.969C164.547 37.969 168.741 32.744 167.111 26.0301C167.116 26.0301 165.028 28.1297 157.318 27.0083Z" fill="#3E4E48"/>
<path d="M183.867 20.4804C183.867 20.4804 184.1 22.3414 191.32 20.4804L195.042 19.3113C195.042 19.3113 191.096 32.3764 182.938 39.1332C182.938 39.1332 182.475 40.2975 184.563 40.5313C184.563 40.5313 189.457 36.3417 193.651 31.904C193.651 31.904 197.387 43.5614 200.637 42.3875L201.8 40.2927C201.8 40.2927 195.509 31.2025 195.276 29.7949C195.047 28.4015 194.351 29.3368 194.351 29.3368C194.351 29.3368 199.241 23.9733 200.861 18.8437C202.501 13.7093 200.861 14.8784 200.861 14.8784C200.861 14.8784 190.396 15.5703 185.735 17.6651C185.735 17.6699 183.867 18.6051 183.867 20.4804Z" fill="#3E4E48"/>
<path d="M212.98 5.78833C212.98 5.78833 206.456 31.6703 208.319 40.2929C208.319 40.2929 209.01 42.7026 210.378 43.3802C210.607 43.4899 210.845 43.5615 211.112 43.5615C212.975 43.5615 210.65 41.9296 213.681 40.9991C213.681 40.9991 212.747 29.5707 214.372 26.7793C214.372 26.7793 220.181 26.9797 222.292 26.073C223.917 25.3716 222.993 23.5106 224.847 24.2121C224.847 24.2121 226.014 23.2816 222.054 21.1725C222.054 21.1725 215.296 20.4806 215.067 20.4806C214.839 20.4806 215.763 8.58458 215.763 8.58458C215.763 8.58458 216.931 6.48978 212.98 5.78833Z" fill="#3E4E48"/>
<path d="M238.829 14.8833C238.829 14.8833 230.908 18.1472 233.696 21.1677C236.513 24.2073 240.225 23.2768 241.388 23.7397C241.388 23.7397 239.987 29.795 240.225 33.0637L230.908 33.5265C230.908 33.5265 226.491 37.0242 228.121 38.4271C228.121 38.4271 247.912 39.5962 253.035 38.6609C253.035 38.6609 252.344 37.4966 258.397 37.4966C258.397 37.4966 259.102 34.4713 264.921 34.7004C264.921 34.7004 264.678 32.8394 258.625 32.367C258.625 32.367 247.683 31.4317 246.749 32.138C246.749 32.138 248.841 27.476 246.749 23.9783C246.749 23.9783 253.035 24.4363 256.3 19.7791C256.3 19.7791 257.691 17.6795 256.066 16.0428L240.702 15.8138C240.697 15.809 239.291 15.1123 238.829 14.8833Z" fill="#3E4E48"/>
<path d="M279.118 5.55448C280.976 8.80882 293.09 5.32544 293.09 5.32544C297.98 5.78353 296.121 9.05218 296.121 9.05218C290.522 12.0727 280.981 12.0727 280.981 12.0727C276.563 11.8437 277.254 8.34596 277.254 8.34596C277.016 6.24639 279.118 5.55448 279.118 5.55448Z" fill="#3E4E48"/>
<path d="M120.961 25.987C120.837 22.8806 118.397 21.64 115.58 22.9617C113.279 27.471 118.783 28.077 120.961 25.987Z" fill="#3E4E48"/>
<path d="M302.641 13.7141V13.7189C302.679 13.7237 302.641 13.7141 302.641 13.7141Z" fill="#3E4E48"/>
<path d="M304.723 27.4757C304.723 27.4757 294.244 27.4757 291.927 27.9338C289.592 28.4015 290.993 23.978 290.993 23.978C290.993 23.978 292.614 22.5752 296.583 22.3413C296.583 22.3413 298.676 22.5704 299.838 24.9133C299.838 24.9133 303.565 18.3808 302.641 13.7188C302.521 13.6949 301.621 13.4516 296.121 11.853L295.416 12.5545C295.416 12.5545 279.356 13.0221 276.563 15.3507C276.563 15.3507 276.473 18.7243 276.249 21.1102C276.02 23.5009 275 26.0442 273.751 28.64C272.336 32.3572 267.003 41.4665 264.673 42.3875C264.673 42.3875 263.748 45.8947 264.916 46.5914C264.916 46.5914 268.871 46.3528 273.07 40.2927C273.07 40.2927 275.901 37.3103 276.787 35.8645C277.021 35.4875 276.949 35.1105 276.949 35.1105L281.448 34.7002C281.448 34.7002 280.981 36.1031 279.58 37.9688C279.58 37.9688 273.99 44.2628 273.99 45.8995C273.99 45.8995 273.99 48.9248 278.65 47.7557C278.65 47.7557 284.941 39.3669 285.399 37.2674C285.399 37.2674 291.127 36.1603 289.721 44.2484C289.683 44.4775 289.64 44.7161 289.597 44.9547L287.5 49.6214C287.5 49.6214 282.606 47.9895 281.905 50.0891C281.21 52.1839 285.632 55.2139 287.5 56.1492L289.13 55.4573C289.13 55.4573 290.517 55.9154 291.927 55.4573C291.927 55.4573 297.737 43.7904 297.737 41.6956C297.737 41.6956 298.676 37.7255 288.663 34.2325C288.663 34.2325 301.702 32.6054 304.494 31.4315V30.9734C304.499 30.9734 306.591 28.4062 304.723 27.4757ZM287.267 25.1424C287.009 28.1867 285.399 29.5705 285.399 29.5705C283.316 31.2025 277.492 31.6701 277.492 31.6701C277.492 30.2768 279.351 25.61 279.351 25.61L287.267 24.67V25.1424ZM280.199 21.0434L280.905 18.2567C284.87 18.9582 290.45 16.8586 290.45 16.8586L296.045 17.0876C296.045 17.0876 297.622 22.0455 295.578 20.3515C293.958 19.0107 291.613 19.4163 291.613 19.4163C290.26 19.7694 282.711 20.509 280.199 21.0434Z" fill="#3E4E48"/>
</g>
<defs>
<clipPath id="clip0_4_22">
<rect width="305" height="60" fill="white" transform="translate(0.5)"/>
</clipPath>
</defs>
</svg>
